<svg xmlns="http://www.w3.org/2000/svg" xmlns:xlink="http://www.w3.org/1999/xlink" width="500" zoomAndPan="magnify" viewBox="0 0 375 374.999991" height="500" preserveAspectRatio="xMidYMid meet" version="1.0"><defs><g/><clipPath id="0fbe763c3a"><path d="M 122.480469 71.273438 L 252.230469 71.273438 L 252.230469 232 L 122.480469 232 Z M 122.480469 71.273438 " clip-rule="nonzero"/></clipPath></defs><path fill="#6b6161" d="M 155.777344 125.695312 C 155.246094 125.695312 154.71875 125.578125 154.222656 125.34375 C 153.164062 124.839844 152.40625 123.851562 152.195312 122.703125 L 151.175781 117.144531 C 150.4375 110.414062 152.578125 103.648438 157.058594 98.574219 C 161.613281 93.421875 168.175781 90.472656 175.066406 90.472656 L 199.960938 90.472656 C 206.839844 90.472656 213.398438 93.421875 217.957031 98.574219 C 222.445312 103.664062 224.589844 110.429688 223.835938 117.152344 L 222.816406 122.707031 C 222.605469 123.859375 221.84375 124.84375 220.789062 125.34375 C 219.722656 125.851562 218.515625 125.8125 217.480469 125.242188 C 208.363281 120.214844 197.996094 117.558594 187.503906 117.558594 C 177.011719 117.558594 166.648438 120.214844 157.53125 125.242188 C 156.976562 125.546875 156.375 125.695312 155.777344 125.695312 Z M 153.921875 116.796875 L 154.917969 122.203125 C 154.992188 122.601562 155.285156 122.78125 155.40625 122.839844 C 155.554688 122.90625 155.851562 123 156.191406 122.816406 C 165.71875 117.566406 176.546875 114.789062 187.503906 114.789062 C 198.460938 114.789062 209.289062 117.566406 218.816406 122.816406 C 219.152344 123 219.453125 122.914062 219.597656 122.839844 C 219.71875 122.78125 220.015625 122.601562 220.089844 122.199219 L 221.09375 116.746094 C 221.746094 110.902344 219.847656 104.910156 215.875 100.410156 C 211.847656 95.851562 206.042969 93.242188 199.957031 93.242188 L 175.0625 93.242188 C 168.96875 93.242188 163.164062 95.851562 159.132812 100.410156 C 155.179688 104.886719 153.28125 110.855469 153.921875 116.796875 Z M 153.921875 116.796875 " fill-opacity="1" fill-rule="nonzero"/><path fill="#6b6161" d="M 187.5 220.933594 L 186.691406 220.34375 C 185.757812 219.664062 163.746094 203.558594 155.917969 189.484375 C 150.617188 179.949219 153.125 167.144531 161.507812 160.9375 C 169.164062 155.277344 178.800781 156.957031 187.5 165.386719 C 196.195312 156.957031 205.835938 155.273438 213.492188 160.9375 C 221.878906 167.144531 224.382812 179.949219 219.082031 189.480469 C 211.136719 203.761719 190.621094 218.695312 188.308594 220.347656 Z M 171.222656 160.445312 C 168.355469 160.445312 165.625 161.34375 163.160156 163.164062 C 156.789062 167.882812 153.136719 178.769531 158.339844 188.140625 C 165.054688 200.210938 183.4375 214.441406 187.515625 217.503906 C 191.628906 214.476562 209.640625 200.761719 216.660156 188.136719 C 221.867188 178.769531 218.214844 167.878906 211.84375 163.164062 C 205.117188 158.1875 196.390625 160.117188 188.496094 168.3125 L 187.5 169.347656 L 186.5 168.3125 C 181.503906 163.121094 176.167969 160.445312 171.222656 160.445312 Z M 171.222656 160.445312 " fill-opacity="1" fill-rule="nonzero"/><g clip-path="url(#0fbe763c3a)"><path fill="#6b6161" d="M 214.078125 231.097656 C 210.210938 231.097656 206.296875 230.410156 202.515625 228.988281 C 196.570312 226.746094 191.386719 223.832031 186.796875 220.644531 C 182.300781 223.296875 177.445312 225.660156 172.324219 227.671875 C 158.035156 233.285156 141.613281 228.261719 133.285156 215.710938 C 126.21875 205.058594 122.480469 192.644531 122.480469 179.8125 C 122.480469 167.257812 126.070312 155.066406 132.867188 144.558594 C 134.8125 141.550781 135.519531 137.90625 134.859375 134.300781 L 132.210938 119.847656 C 130.683594 107.496094 134.515625 95.148438 142.714844 85.890625 C 150.902344 76.628906 162.695312 71.3125 175.0625 71.3125 L 199.953125 71.3125 C 212.316406 71.3125 224.101562 76.628906 232.289062 85.890625 C 240.484375 95.148438 244.320312 107.496094 242.808594 119.769531 L 242.722656 120.371094 L 240.164062 134.304688 C 239.5 137.90625 240.203125 141.550781 242.148438 144.5625 C 248.933594 155.078125 252.523438 167.265625 252.523438 179.8125 C 252.523438 193.574219 248.273438 206.726562 240.238281 217.84375 C 234.089844 226.347656 224.25 231.097656 214.078125 231.097656 Z M 189.390625 219.058594 C 193.5625 221.859375 198.226562 224.40625 203.492188 226.394531 C 216.054688 231.132812 230.238281 226.945312 237.988281 216.21875 C 245.679688 205.578125 249.746094 192.988281 249.746094 179.8125 C 249.746094 167.800781 246.3125 156.132812 239.8125 146.066406 C 237.488281 142.457031 236.640625 138.105469 237.433594 133.808594 L 240.058594 119.40625 C 241.46875 107.949219 237.882812 96.394531 230.207031 87.730469 C 222.546875 79.058594 211.515625 74.085938 199.949219 74.085938 L 175.054688 74.085938 C 163.480469 74.085938 152.445312 79.058594 144.78125 87.730469 C 137.109375 96.390625 133.523438 107.949219 134.9375 119.429688 L 137.574219 133.804688 C 138.363281 138.105469 137.515625 142.460938 135.183594 146.066406 C 128.683594 156.125 125.242188 167.796875 125.242188 179.816406 C 125.242188 192.101562 128.820312 203.984375 135.589844 214.179688 C 143.195312 225.648438 158.21875 230.234375 171.300781 225.09375 C 175.890625 223.292969 180.257812 221.203125 184.328125 218.871094 C 180.214844 215.796875 176.605469 212.546875 173.355469 209.453125 L 175.269531 207.445312 C 178.6875 210.699219 182.515625 214.136719 186.914062 217.332031 C 191.742188 214.355469 196.105469 211.03125 199.867188 207.445312 L 201.777344 209.453125 C 198.15625 212.914062 193.980469 216.140625 189.390625 219.058594 Z M 189.390625 219.058594 " fill-opacity="1" fill-rule="nonzero"/></g><g fill="#6b6161" fill-opacity="1"><g transform="translate(101.970165, 289.758761)"><g><path d="M 21.28125 -32.921875 L 17.078125 -33.359375 C 15.554688 -33.359375 14.378906 -32.988281 13.546875 -32.25 C 12.660156 -31.4375 12.007812 -29.863281 11.59375 -27.53125 C 11.175781 -25.207031 10.773438 -22.113281 10.390625 -18.25 C 10.015625 -14.394531 9.828125 -11.613281 9.828125 -9.90625 C 9.828125 -8.195312 10.097656 -6.988281 10.640625 -6.28125 C 11.191406 -5.570312 11.847656 -5.21875 12.609375 -5.21875 C 13.367188 -5.21875 13.984375 -5.226562 14.453125 -5.25 L 16.09375 -19.421875 C 16.164062 -19.785156 16.382812 -19.988281 16.75 -20.03125 L 21.453125 -20.203125 C 21.898438 -20.179688 22.125 -19.976562 22.125 -19.59375 L 20.03125 -0.84375 C 19.957031 -0.476562 19.726562 -0.269531 19.34375 -0.21875 C 17.132812 0.113281 14.4375 0.28125 11.25 0.28125 C 7.4375 0.28125 4.988281 -1.5625 3.90625 -5.25 C 3.601562 -6.269531 3.453125 -7.28125 3.453125 -8.28125 C 3.453125 -9.28125 3.484375 -10.460938 3.546875 -11.828125 C 3.742188 -16.722656 4.328125 -21.804688 5.296875 -27.078125 C 5.953125 -30.742188 6.753906 -33.316406 7.703125 -34.796875 C 8.703125 -36.347656 9.898438 -37.429688 11.296875 -38.046875 C 13.046875 -38.816406 14.921875 -39.203125 16.921875 -39.203125 C 18.921875 -39.203125 20.253906 -39.144531 20.921875 -39.03125 C 21.585938 -38.925781 21.960938 -38.867188 22.046875 -38.859375 C 22.242188 -38.785156 22.34375 -38.578125 22.34375 -38.234375 L 21.796875 -33.578125 C 21.734375 -33.140625 21.5625 -32.921875 21.28125 -32.921875 Z M 21.28125 -32.921875 "/></g></g></g><g fill="#6b6161" fill-opacity="1"><g transform="translate(125.944804, 289.758761)"><g><path d="M 10.203125 -38.484375 L 13.046875 -24.203125 L 18.171875 -38.203125 C 18.304688 -38.566406 18.515625 -38.757812 18.796875 -38.78125 L 23.953125 -38.953125 C 24.148438 -38.929688 24.3125 -38.863281 24.4375 -38.75 C 24.5625 -38.632812 24.625 -38.507812 24.625 -38.375 L 15.296875 -17.53125 L 13.375 -0.703125 C 13.320312 -0.296875 13.101562 -0.0859375 12.71875 -0.078125 L 7.578125 0.09375 C 7.210938 0.09375 7.03125 -0.0625 7.03125 -0.375 L 8.90625 -16.96875 L 3.796875 -38.375 C 3.796875 -38.613281 4.019531 -38.75 4.46875 -38.78125 L 9.546875 -38.984375 C 9.910156 -38.960938 10.128906 -38.796875 10.203125 -38.484375 Z M 10.203125 -38.484375 "/></g></g></g><g fill="#6b6161" fill-opacity="1"><g transform="translate(148.369466, 289.758761)"><g><path d="M 12.703125 -0.375 L 10.59375 -30.296875 L 8.71875 -0.71875 C 8.6875 -0.300781 8.472656 -0.0859375 8.078125 -0.078125 L 3.296875 0.09375 C 2.929688 0.0625 2.75 -0.09375 2.75 -0.375 L 7.046875 -38.203125 C 7.078125 -38.398438 7.128906 -38.539062 7.203125 -38.625 C 7.285156 -38.707031 7.453125 -38.757812 7.703125 -38.78125 L 14 -39 C 14.394531 -38.988281 14.613281 -38.789062 14.65625 -38.40625 L 16.921875 -8.296875 L 25.609375 -38.203125 C 25.691406 -38.566406 25.921875 -38.757812 26.296875 -38.78125 L 32.875 -39 C 33.289062 -38.988281 33.5 -38.789062 33.5 -38.40625 L 29.25 -0.703125 C 29.195312 -0.296875 28.972656 -0.0859375 28.578125 -0.078125 L 23.421875 0.09375 C 23.078125 0.09375 22.90625 -0.0625 22.90625 -0.375 L 27.78125 -30.859375 L 18.828125 -0.671875 C 18.691406 -0.285156 18.445312 -0.0859375 18.09375 -0.078125 L 13.25 0.09375 C 12.914062 0.0625 12.734375 -0.09375 12.703125 -0.375 Z M 12.703125 -0.375 "/></g></g></g><g fill="#6b6161" fill-opacity="1"><g transform="translate(182.443949, 289.758761)"><g><path d="M 18.90625 -16.84375 L 10.90625 -16.578125 L 9.09375 -0.796875 C 9.03125 -0.410156 8.816406 -0.203125 8.453125 -0.171875 L 3.296875 0.09375 C 2.929688 0.09375 2.75 -0.0625 2.75 -0.375 L 7.09375 -38.203125 C 7.164062 -38.554688 7.382812 -38.75 7.75 -38.78125 L 21.453125 -39.359375 C 21.867188 -39.304688 22.078125 -39.078125 22.078125 -38.671875 L 21.453125 -33.5 C 21.398438 -33.070312 21.179688 -32.847656 20.796875 -32.828125 L 12.75 -32.546875 L 11.65625 -22.953125 L 19.546875 -23.21875 C 19.984375 -23.207031 20.203125 -22.992188 20.203125 -22.578125 L 19.546875 -17.46875 C 19.484375 -17.09375 19.269531 -16.882812 18.90625 -16.84375 Z M 18.90625 -16.84375 "/></g></g></g><g fill="#6b6161" fill-opacity="1"><g transform="translate(204.693608, 289.758761)"><g><path d="M 13.328125 -38.359375 L 9.75 -6.578125 L 19.328125 -6.953125 C 19.753906 -6.929688 19.96875 -6.710938 19.96875 -6.296875 L 19.328125 -1.125 C 19.273438 -0.6875 19.054688 -0.460938 18.671875 -0.453125 L 3.28125 0.09375 C 2.925781 0.09375 2.75 -0.0625 2.75 -0.375 L 7.03125 -38.203125 C 7.0625 -38.398438 7.113281 -38.539062 7.1875 -38.625 C 7.257812 -38.707031 7.414062 -38.757812 7.65625 -38.78125 L 12.671875 -38.953125 C 13.109375 -38.929688 13.328125 -38.734375 13.328125 -38.359375 Z M 13.328125 -38.359375 "/></g></g></g><g fill="#6b6161" fill-opacity="1"><g transform="translate(226.818275, 289.758761)"><g><path d="M 18.703125 -17.09375 L 10.921875 -16.796875 L 9.75 -6.546875 L 19.328125 -6.875 C 19.753906 -6.851562 19.96875 -6.632812 19.96875 -6.21875 L 19.328125 -1.046875 C 19.296875 -0.703125 19.078125 -0.488281 18.671875 -0.40625 L 3.296875 0.09375 C 2.929688 0.09375 2.75 -0.0625 2.75 -0.375 L 7.078125 -38.203125 C 7.140625 -38.554688 7.351562 -38.75 7.71875 -38.78125 L 21.421875 -39.25 C 21.835938 -39.195312 22.046875 -38.972656 22.046875 -38.578125 L 21.421875 -33.40625 C 21.367188 -32.988281 21.15625 -32.765625 20.78125 -32.734375 L 12.71875 -32.5 L 11.65625 -23.203125 L 19.34375 -23.46875 C 19.78125 -23.457031 20 -23.242188 20 -22.828125 L 19.34375 -17.71875 C 19.28125 -17.34375 19.066406 -17.132812 18.703125 -17.09375 Z M 18.703125 -17.09375 "/></g></g></g><g fill="#6b6161" fill-opacity="1"><g transform="translate(249.442934, 289.758761)"><g><path d="M 25.34375 -38.375 L 16.625 -19.15625 L 22.03125 -0.796875 C 22.039062 -0.742188 22.046875 -0.671875 22.046875 -0.578125 C 22.046875 -0.296875 21.835938 -0.132812 21.421875 -0.09375 L 16.09375 0.09375 C 15.84375 0.0820312 15.660156 -0.0703125 15.546875 -0.375 L 12 -13.875 L 6.75 -0.796875 C 6.550781 -0.328125 6.316406 -0.0859375 6.046875 -0.078125 L 0.90625 0.09375 C 0.550781 0.09375 0.375 -0.0625 0.375 -0.375 L 9.453125 -21.15625 L 4.34375 -38.203125 C 4.34375 -38.566406 4.550781 -38.757812 4.96875 -38.78125 L 10.15625 -38.953125 C 10.445312 -38.929688 10.660156 -38.734375 10.796875 -38.359375 L 14.125 -26.171875 L 19.046875 -38.203125 C 19.203125 -38.566406 19.425781 -38.757812 19.71875 -38.78125 L 24.71875 -38.984375 C 25.132812 -38.960938 25.34375 -38.757812 25.34375 -38.375 Z M 25.34375 -38.375 "/></g></g></g></svg>