<?xml version="1.0" encoding="utf-8"?>
<!-- Generator: Adobe Illustrator 26.0.1, SVG Export Plug-In . SVG Version: 6.00 Build 0)  -->
<svg version="1.1" id="Layer_1" xmlns="http://www.w3.org/2000/svg" xmlns:xlink="http://www.w3.org/1999/xlink" x="0px" y="0px"
	 viewBox="0 0 500 500" style="enable-background:new 0 0 500 500;" xml:space="preserve">
<style type="text/css">
	.st0{clip-path:url(#SVGID_00000093147685285352150300000014497592566341542809_);}
	.st1{fill:#E7BCAF;}
	.st2{fill:#6B6161;stroke:#6B6161;stroke-width:16;stroke-miterlimit:10;}
</style>
<g>
	<g>
		<g>
			<defs>
				<circle id="SVGID_1_" cx="250" cy="250" r="204.3"/>
			</defs>
			<clipPath id="SVGID_00000152229257020449995100000013601692847640650135_">
				<use xlink:href="#SVGID_1_"  style="overflow:visible;"/>
			</clipPath>
			<g style="clip-path:url(#SVGID_00000152229257020449995100000013601692847640650135_);">
				<path class="st1" d="M45.7,45.7h408.6v408.6H45.7V45.7z"/>
			</g>
		</g>
	</g>
</g>
<path class="st2" d="M178,189.7c-1.2,0-2.4-0.3-3.5-0.8c-2.4-1.1-4.1-3.4-4.6-6l-2.3-12.6c-1.7-15.3,3.2-30.6,13.3-42.1
	c10.3-11.7,25.2-18.4,40.9-18.4h56.5c15.6,0,30.5,6.7,40.8,18.4c10.2,11.5,15.1,26.9,13.3,42.2l-2.3,12.6c-0.5,2.6-2.2,4.8-4.6,6
	c-2.4,1.1-5.2,1.1-7.5-0.2c-20.7-11.4-44.2-17.4-68-17.4s-47.3,6-68,17.4C180.8,189.3,179.4,189.7,178,189.7z M173.8,169.5l2.3,12.3
	c0.2,0.9,0.8,1.3,1.1,1.4c0.3,0.2,1,0.4,1.8,0c21.6-11.9,46.2-18.2,71-18.2c24.9,0,49.4,6.3,71,18.2c0.8,0.4,1.4,0.2,1.8,0
	c0.3-0.1,0.9-0.5,1.1-1.4l2.3-12.4c1.5-13.3-2.8-26.8-11.8-37.1c-9.1-10.3-22.3-16.3-36.1-16.3h-56.5c-13.8,0-27,5.9-36.1,16.3
	C176.7,142.4,172.4,156,173.8,169.5z"/>
<path class="st2" d="M250,405.7l-1.8-1.3c-2.1-1.5-52.1-38.1-69.8-70c-12-21.6-6.3-50.7,12.7-64.8c17.4-12.8,39.2-9,59,10.1
	c19.7-19.1,41.6-22.9,59-10.1c19,14.1,24.7,43.1,12.7,64.8c-18,32.4-64.6,66.3-69.8,70L250,405.7z M213.1,268.5
	c-6.5,0-12.7,2-18.3,6.2c-14.5,10.7-22.7,35.4-10.9,56.7c15.2,27.4,56.9,59.7,66.2,66.6c9.3-6.9,50.2-38,66.1-66.6
	c11.8-21.2,3.5-46-10.9-56.7c-15.3-11.3-35.1-6.9-53,11.7l-2.3,2.3l-2.3-2.3C236.4,274.6,224.3,268.5,213.1,268.5z"/>
<g>
	<g>
		<path class="st2" d="M310.3,428.8c-8.8,0-17.7-1.6-26.2-4.8c-13.5-5.1-25.2-11.7-35.7-18.9c-10.2,6-21.2,11.4-32.8,15.9
			c-32.4,12.7-69.7,1.3-88.6-27.1c-16-24.2-24.5-52.3-24.5-81.4c0-28.5,8.2-56.1,23.6-80c4.4-6.8,6-15.1,4.5-23.3l-6-32.8
			c-3.5-28,5.2-56,23.8-77c18.6-21,45.3-33.1,73.4-33.1h56.5c28,0,54.8,12.1,73.4,33.1c18.6,21,27.3,49,23.9,76.9l-0.2,1.4
			l-5.8,31.6c-1.5,8.2,0.1,16.4,4.5,23.3c15.4,23.9,23.5,51.5,23.5,80c0,31.2-9.6,61.1-27.9,86.3C355.7,418,333.4,428.8,310.3,428.8
			z M254.3,401.5c9.5,6.4,20,12.1,32,16.6c28.5,10.7,60.7,1.2,78.3-23.1c17.4-24.1,26.7-52.7,26.7-82.6c0-27.2-7.8-53.7-22.5-76.6
			c-5.3-8.2-7.2-18.1-5.4-27.8l6-32.7c3.2-26-4.9-52.2-22.3-71.9c-17.4-19.7-42.4-31-68.7-31h-56.5c-26.3,0-51.3,11.3-68.7,31
			c-17.4,19.7-25.5,45.9-22.3,71.9l6,32.6c1.8,9.8-0.1,19.6-5.4,27.8c-14.8,22.8-22.6,49.3-22.6,76.6c0,27.9,8.1,54.8,23.5,78
			c17.3,26,51.3,36.4,81,24.8c10.4-4.1,20.3-8.8,29.6-14.1c-9.3-7-17.5-14.3-24.9-21.4l4.3-4.6c7.8,7.4,16.4,15.2,26.4,22.4
			c11-6.8,20.9-14.3,29.4-22.4l4.3,4.6C274.2,387.5,264.7,394.9,254.3,401.5z"/>
	</g>
</g>
</svg>
