<svg xmlns="http://www.w3.org/2000/svg" xmlns:xlink="http://www.w3.org/1999/xlink" width="500" zoomAndPan="magnify" viewBox="0 0 375 374.999991" height="500" preserveAspectRatio="xMidYMid meet" version="1.0"><defs><clipPath id="b7d714fb7e"><path d="M 11.828125 173 L 224 173 L 224 209 L 11.828125 209 Z M 11.828125 173 " clip-rule="nonzero"/></clipPath><clipPath id="e8be9539a8"><path d="M 64 32.214844 L 364.328125 32.214844 L 364.328125 349.464844 L 64 349.464844 Z M 64 32.214844 " clip-rule="nonzero"/></clipPath></defs><g clip-path="url(#b7d714fb7e)"><path fill="#6b6161" d="M 11.832031 173.304688 L 223.464844 173.304688 L 223.464844 208.578125 L 11.832031 208.578125 Z M 11.832031 173.304688 " fill-opacity="1" fill-rule="evenodd"/></g><path fill="#6b6161" d="M 174.210938 116.742188 L 235.9375 178.46875 C 242.824219 185.355469 242.824219 196.523438 235.9375 203.410156 L 174.210938 265.136719 L 149.269531 240.195312 L 198.523438 190.941406 L 149.269531 141.683594 Z M 174.210938 116.742188 " fill-opacity="1" fill-rule="evenodd"/><g clip-path="url(#e8be9539a8)"><path fill="#6b6161" d="M 205.824219 67.488281 C 157.898438 67.488281 116.320312 94.792969 95.851562 134.78125 L 64.453125 118.710938 C 90.71875 67.398438 144.148438 32.214844 205.824219 32.214844 C 293.488281 32.214844 364.550781 103.277344 364.550781 190.941406 C 364.550781 278.601562 293.488281 349.664062 205.824219 349.664062 C 144.148438 349.664062 90.71875 314.480469 64.453125 263.171875 L 95.851562 247.097656 C 116.320312 287.085938 157.898438 314.394531 205.824219 314.394531 C 274.007812 314.394531 329.277344 259.121094 329.277344 190.941406 C 329.277344 122.757812 274.007812 67.488281 205.824219 67.488281 Z M 205.824219 67.488281 " fill-opacity="1" fill-rule="evenodd"/></g></svg>