<svg xmlns="http://www.w3.org/2000/svg" xmlns:xlink="http://www.w3.org/1999/xlink" width="500" zoomAndPan="magnify" viewBox="0 0 375 374.999991" height="500" preserveAspectRatio="xMidYMid meet" version="1.0"><defs><clipPath id="22ca72a953"><path d="M 35 110 L 341 110 L 341 266 L 35 266 Z M 35 110 " clip-rule="nonzero"/></clipPath><clipPath id="a1059c697b"><path d="M 167.929688 6.808594 L 368.613281 171.328125 L 206.945312 368.53125 L 6.261719 204.011719 Z M 167.929688 6.808594 " clip-rule="nonzero"/></clipPath><clipPath id="d07dca2c0b"><path d="M 167.929688 6.808594 L 368.613281 171.328125 L 206.945312 368.53125 L 6.261719 204.011719 Z M 167.929688 6.808594 " clip-rule="nonzero"/></clipPath></defs><g clip-path="url(#22ca72a953)"><g clip-path="url(#a1059c697b)"><g clip-path="url(#d07dca2c0b)"><path fill="#6b6161" d="M 324.082031 182.113281 C 324.128906 181.640625 324.226562 181.179688 324.371094 180.726562 C 324.515625 180.273438 324.703125 179.839844 324.933594 179.425781 C 325.167969 179.011719 325.441406 178.625 325.753906 178.265625 C 326.066406 177.90625 326.410156 177.585938 326.789062 177.296875 C 327.167969 177.007812 327.570312 176.761719 328 176.558594 C 328.429688 176.351562 328.875 176.195312 329.335938 176.082031 C 329.796875 175.96875 330.265625 175.902344 330.738281 175.886719 C 331.214844 175.867188 331.6875 175.898438 332.15625 175.980469 C 336.085938 176.78125 339.523438 177.609375 339.789062 179.222656 C 340.335938 183.113281 340.386719 187.011719 339.945312 190.914062 C 339.503906 194.820312 338.582031 198.605469 337.183594 202.277344 C 336.621094 203.761719 333.027344 204.273438 328.945312 204.746094 C 328.5 204.804688 328.054688 204.808594 327.609375 204.765625 C 327.164062 204.71875 326.730469 204.621094 326.308594 204.476562 C 325.882812 204.332031 325.484375 204.140625 325.101562 203.902344 C 324.722656 203.664062 324.375 203.386719 324.0625 203.066406 C 323.746094 202.75 323.472656 202.402344 323.234375 202.019531 C 323 201.636719 322.8125 201.234375 322.671875 200.8125 C 322.527344 200.386719 322.4375 199.953125 322.394531 199.503906 C 322.351562 199.058594 322.359375 198.613281 322.421875 198.171875 Z M 52.316406 179.738281 C 52.375 179.269531 52.378906 178.796875 52.324219 178.328125 C 52.269531 177.859375 52.160156 177.402344 51.996094 176.957031 C 51.832031 176.511719 51.617188 176.09375 51.351562 175.703125 C 51.085938 175.3125 50.777344 174.957031 50.425781 174.640625 C 50.074219 174.324219 49.691406 174.050781 49.273438 173.828125 C 48.855469 173.601562 48.417969 173.429688 47.960938 173.3125 C 47.503906 173.195312 47.035156 173.132812 46.5625 173.125 C 46.089844 173.121094 45.621094 173.171875 45.160156 173.277344 C 41.484375 174.039062 38.367188 174.855469 37.875 176.351562 C 36.707031 180.074219 35.980469 183.882812 35.695312 187.773438 C 35.410156 191.664062 35.574219 195.535156 36.183594 199.390625 C 36.359375 200.625 39.40625 201.210938 42.914062 201.734375 C 43.375 201.789062 43.832031 201.796875 44.292969 201.757812 C 44.753906 201.71875 45.203125 201.636719 45.648438 201.511719 C 46.09375 201.382812 46.519531 201.214844 46.929688 201.003906 C 47.339844 200.789062 47.722656 200.539062 48.085938 200.253906 C 48.445312 199.964844 48.773438 199.644531 49.070312 199.289062 C 49.367188 198.9375 49.625 198.558594 49.847656 198.152344 C 50.070312 197.746094 50.25 197.324219 50.386719 196.882812 C 50.523438 196.445312 50.617188 195.996094 50.664062 195.535156 Z M 90.539062 186.449219 C 91.730469 174.960938 92.917969 163.472656 94.105469 151.980469 C 96.113281 132.617188 96.113281 132.617188 77.316406 132.351562 C 66.332031 132.191406 63.078125 135.03125 61.910156 146.066406 C 59.539062 168.460938 57.636719 190.878906 54.839844 213.246094 C 51.496094 240 54.746094 237.652344 77.910156 238.390625 C 83.578125 238.570312 85.585938 236.34375 86.046875 230.648438 C 87.28125 215.925781 89.003906 201.1875 90.53125 186.457031 Z M 314.054688 227.640625 C 316.414062 205.484375 318.332031 183.3125 321.050781 161.175781 C 324.261719 135.007812 321.480469 136.671875 297.691406 136.144531 C 297.4375 136.09375 297.183594 136.058594 296.929688 136.035156 C 296.671875 136.015625 296.414062 136.007812 296.160156 136.019531 C 295.902344 136.027344 295.644531 136.050781 295.390625 136.09375 C 295.136719 136.132812 294.886719 136.1875 294.640625 136.257812 C 294.390625 136.324219 294.148438 136.410156 293.910156 136.507812 C 293.675781 136.605469 293.441406 136.71875 293.21875 136.84375 C 292.996094 136.96875 292.777344 137.109375 292.570312 137.261719 C 292.363281 137.414062 292.164062 137.574219 291.976562 137.75 C 291.789062 137.925781 291.609375 138.113281 291.445312 138.308594 C 291.277344 138.503906 291.125 138.710938 290.980469 138.925781 C 290.839844 139.136719 290.710938 139.359375 290.597656 139.589844 C 290.480469 139.820312 290.378906 140.054688 290.292969 140.296875 C 290.203125 140.539062 290.132812 140.785156 290.074219 141.035156 C 290.015625 141.285156 289.972656 141.539062 289.945312 141.796875 C 289.914062 142.050781 289.902344 142.308594 289.90625 142.566406 C 289.90625 142.820312 289.925781 143.078125 289.957031 143.332031 C 288.675781 158.707031 286.882812 174.058594 285.289062 189.421875 L 281.796875 223.105469 C 279.867188 241.8125 279.867188 241.8125 298.371094 242.125 C 309.792969 242.339844 312.773438 239.667969 314.054688 227.640625 Z M 134.945312 189.695312 C 136.84375 171.390625 138.734375 153.097656 140.621094 134.8125 C 142.988281 111.945312 142.988281 111.945312 120.433594 111.402344 C 107.550781 111.097656 105.171875 113.191406 103.785156 126.480469 C 99.816406 164.53125 95.871094 202.585938 91.949219 240.652344 C 89.398438 265.425781 89.589844 265.613281 114.261719 265.574219 C 124.316406 265.558594 127.296875 262.898438 128.40625 252.523438 C 130.648438 231.585938 132.828125 210.640625 134.945312 189.695312 Z M 278.765625 188.242188 C 280.660156 169.941406 282.550781 151.648438 284.429688 133.371094 C 286.734375 110.988281 286.730469 110.984375 264.660156 110.449219 C 251.011719 110.125 249.230469 111.738281 247.746094 126.046875 C 243.792969 164.105469 239.859375 202.15625 235.953125 240.195312 C 233.472656 264.226562 233.464844 264.226562 256.875 264.605469 C 268.304688 264.789062 271.023438 262.464844 272.238281 251.058594 C 274.46875 230.121094 276.644531 209.183594 278.765625 188.242188 Z M 233.832031 180.148438 C 233.898438 179.664062 233.910156 179.175781 233.875 178.6875 C 233.835938 178.199219 233.75 177.722656 233.613281 177.25 C 233.472656 176.78125 233.289062 176.328125 233.054688 175.898438 C 232.820312 175.46875 232.546875 175.066406 232.226562 174.691406 C 231.910156 174.320312 231.558594 173.984375 231.167969 173.6875 C 230.78125 173.386719 230.363281 173.132812 229.921875 172.921875 C 229.480469 172.710938 229.019531 172.546875 228.542969 172.433594 C 228.066406 172.320312 227.585938 172.257812 227.09375 172.246094 L 152.515625 170.203125 C 152.003906 170.203125 151.496094 170.246094 150.996094 170.339844 C 150.492188 170.433594 150 170.570312 149.523438 170.753906 C 149.042969 170.9375 148.585938 171.164062 148.148438 171.429688 C 147.714844 171.699219 147.304688 172.003906 146.925781 172.34375 C 146.542969 172.6875 146.195312 173.058594 145.882812 173.464844 C 145.574219 173.871094 145.300781 174.300781 145.066406 174.757812 C 144.832031 175.214844 144.644531 175.6875 144.496094 176.179688 C 144.351562 176.667969 144.25 177.167969 144.195312 177.675781 L 142.84375 190.746094 C 142.777344 191.230469 142.761719 191.71875 142.796875 192.207031 C 142.835938 192.695312 142.921875 193.175781 143.0625 193.644531 C 143.199219 194.117188 143.382812 194.566406 143.617188 194.996094 C 143.851562 195.429688 144.125 195.832031 144.445312 196.203125 C 144.761719 196.578125 145.117188 196.914062 145.503906 197.210938 C 145.894531 197.511719 146.308594 197.765625 146.75 197.976562 C 147.195312 198.1875 147.652344 198.347656 148.128906 198.460938 C 148.605469 198.578125 149.089844 198.640625 149.578125 198.652344 L 224.15625 200.695312 C 224.667969 200.695312 225.175781 200.648438 225.679688 200.554688 C 226.183594 200.460938 226.675781 200.324219 227.152344 200.140625 C 227.628906 199.957031 228.085938 199.730469 228.523438 199.464844 C 228.960938 199.199219 229.371094 198.894531 229.75 198.550781 C 230.132812 198.210938 230.476562 197.835938 230.789062 197.429688 C 231.101562 197.023438 231.375 196.59375 231.609375 196.136719 C 231.839844 195.679688 232.03125 195.207031 232.175781 194.71875 C 232.324219 194.226562 232.421875 193.726562 232.476562 193.21875 Z M 233.832031 180.148438 " fill-opacity="1" fill-rule="nonzero"/></g></g></g></svg>