<svg xmlns="http://www.w3.org/2000/svg" xmlns:xlink="http://www.w3.org/1999/xlink" width="500" zoomAndPan="magnify" viewBox="0 0 375 374.999991" height="500" preserveAspectRatio="xMidYMid meet" version="1.0"><defs><filter x="0%" y="0%" width="100%" height="100%" id="dc95e08b07"><feColorMatrix values="0 0 0 0 1 0 0 0 0 1 0 0 0 0 1 0 0 0 1 0" color-interpolation-filters="sRGB"/></filter><mask id="025c3e760a"><g filter="url(#dc95e08b07)"><rect x="-37.5" width="450" fill="#000000" y="-37.499999" height="449.999989" fill-opacity="0.65"/></g></mask><clipPath id="43998d223b"><path d="M 28 100 L 334 100 L 334 256 L 28 256 Z M 28 100 " clip-rule="nonzero"/></clipPath><clipPath id="e7b5607b2d"><path d="M 160.929688 -3.191406 L 361.613281 161.328125 L 199.945312 358.53125 L -0.738281 194.011719 Z M 160.929688 -3.191406 " clip-rule="nonzero"/></clipPath><clipPath id="b7304f2670"><path d="M 160.929688 -3.191406 L 361.613281 161.328125 L 199.945312 358.53125 L -0.738281 194.011719 Z M 160.929688 -3.191406 " clip-rule="nonzero"/></clipPath><clipPath id="ba96ea60e0"><rect x="0" width="359" y="0" height="356"/></clipPath></defs><g mask="url(#025c3e760a)"><g transform="matrix(1, 0, 0, 1, 7, 10)"><g clip-path="url(#ba96ea60e0)"><g clip-path="url(#43998d223b)"><g clip-path="url(#e7b5607b2d)"><g clip-path="url(#b7304f2670)"><path fill="#ffffff" d="M 317.082031 172.113281 C 317.128906 171.640625 317.226562 171.179688 317.371094 170.726562 C 317.515625 170.273438 317.703125 169.839844 317.933594 169.425781 C 318.167969 169.011719 318.441406 168.625 318.753906 168.265625 C 319.066406 167.90625 319.410156 167.585938 319.789062 167.296875 C 320.167969 167.007812 320.570312 166.761719 321 166.558594 C 321.429688 166.351562 321.875 166.195312 322.335938 166.082031 C 322.796875 165.96875 323.265625 165.902344 323.738281 165.886719 C 324.214844 165.867188 324.6875 165.898438 325.15625 165.980469 C 329.085938 166.78125 332.523438 167.609375 332.789062 169.222656 C 333.335938 173.113281 333.386719 177.011719 332.945312 180.914062 C 332.503906 184.820312 331.582031 188.605469 330.183594 192.277344 C 329.621094 193.761719 326.027344 194.273438 321.945312 194.746094 C 321.5 194.804688 321.054688 194.808594 320.609375 194.765625 C 320.164062 194.71875 319.730469 194.621094 319.308594 194.476562 C 318.882812 194.332031 318.484375 194.140625 318.101562 193.902344 C 317.722656 193.664062 317.375 193.386719 317.0625 193.066406 C 316.746094 192.75 316.472656 192.402344 316.234375 192.019531 C 316 191.636719 315.8125 191.234375 315.671875 190.8125 C 315.527344 190.386719 315.4375 189.953125 315.394531 189.503906 C 315.351562 189.058594 315.359375 188.613281 315.421875 188.171875 Z M 45.316406 169.738281 C 45.375 169.269531 45.378906 168.796875 45.324219 168.328125 C 45.269531 167.859375 45.160156 167.402344 44.996094 166.957031 C 44.832031 166.511719 44.617188 166.09375 44.351562 165.703125 C 44.085938 165.3125 43.777344 164.957031 43.425781 164.640625 C 43.074219 164.324219 42.691406 164.050781 42.273438 163.828125 C 41.855469 163.601562 41.417969 163.429688 40.960938 163.3125 C 40.503906 163.195312 40.035156 163.132812 39.5625 163.125 C 39.089844 163.121094 38.621094 163.171875 38.160156 163.277344 C 34.484375 164.039062 31.367188 164.855469 30.875 166.351562 C 29.707031 170.074219 28.980469 173.882812 28.695312 177.773438 C 28.410156 181.664062 28.574219 185.535156 29.183594 189.390625 C 29.359375 190.625 32.40625 191.210938 35.914062 191.734375 C 36.375 191.789062 36.832031 191.796875 37.292969 191.757812 C 37.753906 191.71875 38.203125 191.636719 38.648438 191.511719 C 39.09375 191.382812 39.519531 191.214844 39.929688 191.003906 C 40.339844 190.789062 40.722656 190.539062 41.085938 190.253906 C 41.445312 189.964844 41.773438 189.644531 42.070312 189.289062 C 42.367188 188.9375 42.625 188.558594 42.847656 188.152344 C 43.070312 187.746094 43.25 187.324219 43.386719 186.882812 C 43.523438 186.445312 43.617188 185.996094 43.664062 185.535156 Z M 83.539062 176.449219 C 84.730469 164.960938 85.917969 153.472656 87.105469 141.980469 C 89.113281 122.617188 89.113281 122.617188 70.316406 122.351562 C 59.332031 122.191406 56.078125 125.03125 54.910156 136.066406 C 52.539062 158.460938 50.636719 180.878906 47.839844 203.246094 C 44.496094 230 47.746094 227.652344 70.910156 228.390625 C 76.578125 228.570312 78.585938 226.34375 79.046875 220.648438 C 80.28125 205.925781 82.003906 191.1875 83.53125 176.457031 Z M 307.054688 217.640625 C 309.414062 195.484375 311.332031 173.3125 314.050781 151.175781 C 317.261719 125.007812 314.480469 126.671875 290.691406 126.144531 C 290.4375 126.09375 290.183594 126.058594 289.929688 126.035156 C 289.671875 126.015625 289.414062 126.007812 289.160156 126.019531 C 288.902344 126.027344 288.644531 126.050781 288.390625 126.09375 C 288.136719 126.132812 287.886719 126.1875 287.640625 126.257812 C 287.390625 126.324219 287.148438 126.410156 286.910156 126.507812 C 286.675781 126.605469 286.441406 126.71875 286.21875 126.84375 C 285.996094 126.96875 285.777344 127.109375 285.570312 127.261719 C 285.363281 127.414062 285.164062 127.574219 284.976562 127.75 C 284.789062 127.925781 284.609375 128.113281 284.445312 128.308594 C 284.277344 128.503906 284.125 128.710938 283.980469 128.925781 C 283.839844 129.136719 283.710938 129.359375 283.597656 129.589844 C 283.480469 129.820312 283.378906 130.054688 283.292969 130.296875 C 283.203125 130.539062 283.132812 130.785156 283.074219 131.035156 C 283.015625 131.285156 282.972656 131.539062 282.945312 131.796875 C 282.914062 132.050781 282.902344 132.308594 282.90625 132.566406 C 282.90625 132.820312 282.925781 133.078125 282.957031 133.332031 C 281.675781 148.707031 279.882812 164.058594 278.289062 179.421875 L 274.796875 213.105469 C 272.867188 231.8125 272.867188 231.8125 291.371094 232.125 C 302.792969 232.339844 305.773438 229.667969 307.054688 217.640625 Z M 127.945312 179.695312 C 129.84375 161.390625 131.734375 143.097656 133.621094 124.8125 C 135.988281 101.945312 135.988281 101.945312 113.433594 101.402344 C 100.550781 101.097656 98.171875 103.191406 96.785156 116.480469 C 92.816406 154.53125 88.871094 192.585938 84.949219 230.652344 C 82.398438 255.425781 82.589844 255.613281 107.261719 255.574219 C 117.316406 255.558594 120.296875 252.898438 121.40625 242.523438 C 123.648438 221.585938 125.828125 200.640625 127.945312 179.695312 Z M 271.765625 178.242188 C 273.660156 159.941406 275.550781 141.648438 277.429688 123.371094 C 279.734375 100.988281 279.730469 100.984375 257.660156 100.449219 C 244.011719 100.125 242.230469 101.738281 240.746094 116.046875 C 236.792969 154.105469 232.859375 192.15625 228.953125 230.195312 C 226.472656 254.226562 226.464844 254.226562 249.875 254.605469 C 261.304688 254.789062 264.023438 252.464844 265.238281 241.058594 C 267.46875 220.121094 269.644531 199.183594 271.765625 178.242188 Z M 226.832031 170.148438 C 226.898438 169.664062 226.910156 169.175781 226.875 168.6875 C 226.835938 168.199219 226.75 167.722656 226.613281 167.25 C 226.472656 166.78125 226.289062 166.328125 226.054688 165.898438 C 225.820312 165.46875 225.546875 165.066406 225.226562 164.691406 C 224.910156 164.320312 224.558594 163.984375 224.167969 163.6875 C 223.78125 163.386719 223.363281 163.132812 222.921875 162.921875 C 222.480469 162.710938 222.019531 162.546875 221.542969 162.433594 C 221.066406 162.320312 220.585938 162.257812 220.09375 162.246094 L 145.515625 160.203125 C 145.003906 160.203125 144.496094 160.246094 143.996094 160.339844 C 143.492188 160.433594 143 160.570312 142.523438 160.753906 C 142.042969 160.9375 141.585938 161.164062 141.148438 161.429688 C 140.714844 161.699219 140.304688 162.003906 139.925781 162.34375 C 139.542969 162.6875 139.195312 163.058594 138.882812 163.464844 C 138.574219 163.871094 138.300781 164.300781 138.066406 164.757812 C 137.832031 165.214844 137.644531 165.6875 137.496094 166.179688 C 137.351562 166.667969 137.25 167.167969 137.195312 167.675781 L 135.84375 180.746094 C 135.777344 181.230469 135.761719 181.71875 135.796875 182.207031 C 135.835938 182.695312 135.921875 183.175781 136.0625 183.644531 C 136.199219 184.117188 136.382812 184.566406 136.617188 184.996094 C 136.851562 185.429688 137.125 185.832031 137.445312 186.203125 C 137.761719 186.578125 138.117188 186.914062 138.503906 187.210938 C 138.894531 187.511719 139.308594 187.765625 139.75 187.976562 C 140.195312 188.1875 140.652344 188.347656 141.128906 188.460938 C 141.605469 188.578125 142.089844 188.640625 142.578125 188.652344 L 217.15625 190.695312 C 217.667969 190.695312 218.175781 190.648438 218.679688 190.554688 C 219.183594 190.460938 219.675781 190.324219 220.152344 190.140625 C 220.628906 189.957031 221.085938 189.730469 221.523438 189.464844 C 221.960938 189.199219 222.371094 188.894531 222.75 188.550781 C 223.132812 188.210938 223.476562 187.835938 223.789062 187.429688 C 224.101562 187.023438 224.375 186.59375 224.609375 186.136719 C 224.839844 185.679688 225.03125 185.207031 225.175781 184.71875 C 225.324219 184.226562 225.421875 183.726562 225.476562 183.21875 Z M 226.832031 170.148438 " fill-opacity="1" fill-rule="nonzero"/></g></g></g></g></g></g></svg>